<?xml version="1.0" encoding="UTF-8" standalone="no"?>
<svg
   class="svg-icon"
   version="1.1"
   id="account"
   width="32"
   height="32"
   xmlns="http://www.w3.org/2000/svg"
   xmlns:svg="http://www.w3.org/2000/svg">
  <g
     id="icon"
     transform="matrix(0.03164557,0,0,0.03173828,0.10917933,-0.08749988)">
    <path
       d="m 350.72,519.68 c -117.76,0 -215.04,-94.72 -215.04,-209.92 0,-115.2 94.72,-212.48 215.04,-212.48 117.76,0 215.04,94.72 215.04,209.92 0,115.2 -97.28,212.48 -215.04,212.48 z m 0,-371.2 c -89.6,0 -163.84,71.68 -163.84,158.72 0,87.04 74.24,158.72 163.84,158.72 89.6,0 163.84,-71.68 163.84,-158.72 0,-87.04 -74.24,-158.72 -163.84,-158.72 z"
       id="path201" />
    <path
       d="m 673.28,916.48 c -15.36,0 -25.6,-10.24 -25.6,-25.6 0,-161.28 -133.12,-291.84 -299.52,-291.84 -166.4,0 -296.96,130.56 -296.96,291.84 0,15.36 -10.24,25.6 -25.6,25.6 C 10.24,916.48 0,906.24 0,890.88 0,701.44 156.16,547.84 350.72,547.84 c 194.56,0 350.72,153.6 350.72,343.04 -2.56,15.36 -12.8,25.6 -28.16,25.6 z"
       id="path203" />
    <path
       d="M 985.6,307.2 H 660.48 c -15.36,0 -25.6,-10.24 -25.6,-25.6 0,-15.36 10.24,-25.6 25.6,-25.6 H 985.6 c 15.36,0 25.6,10.24 25.6,25.6 0,15.36 -12.8,25.6 -25.6,25.6 z"
       id="path205" />
    <path
       d="M 985.6,486.4 H 701.44 c -15.36,0 -25.6,-10.24 -25.6,-25.6 0,-15.36 10.24,-25.6 25.6,-25.6 H 985.6 c 15.36,0 25.6,10.24 25.6,25.6 0,15.36 -12.8,25.6 -25.6,25.6 z"
       id="path207" />
    <path
       d="M 985.6,691.2 H 783.36 c -15.36,0 -25.6,-10.24 -25.6,-25.6 0,-15.36 10.24,-25.6 25.6,-25.6 H 985.6 c 15.36,0 25.6,10.24 25.6,25.6 0,15.36 -12.8,25.6 -25.6,25.6 z"
       id="path209" />
  </g>
</svg>
