<?xml version="1.0" encoding="UTF-8" standalone="no"?>
<!-- Created with Inkscape (http://www.inkscape.org/) -->

<svg
   version="1.1"
   id="svg1279"
   width="310"
   height="77"
   xmlns="http://www.w3.org/2000/svg"
   xmlns:svg="http://www.w3.org/2000/svg">
  <g
     id="caption"
     transform="matrix(0.35306833,0,0,-0.35457743,-291.0469,347.12371)">
    <path
       d="M 0,0 11.522,28.918 21.51,0 Z m 47.025,-25.223 c -2.633,0.111 -5.012,1.921 -7.132,5.437 -1.172,1.955 -2.434,4.89 -3.788,8.806 L 16.68,44.573 H 13.443 L -9.055,-12.232 c -3.33,-8.443 -7.06,-12.772 -11.193,-12.991 v -2.61 H 4.334 v 2.61 H 1.426 c -1.903,0 -3.457,0.561 -4.664,1.686 -1.207,1.123 -1.811,2.628 -1.811,4.512 0,3.442 1.262,8.679 3.787,15.709 h 23.979 l 6.584,-18.916 c 0.146,-0.436 0.22,-0.834 0.22,-1.199 0,-1.193 -0.312,-1.792 -0.933,-1.792 h -1.262 v -2.61 h 19.699 z"
       style="fill:#b71d24;fill-opacity:1;fill-rule:nonzero;stroke:none"
       id="path1299"
       transform="translate(922.88972,794.93645)" />
    <path
       d="M 0,0 11.525,28.918 21.512,0 Z m 47.027,-25.223 c -2.634,0.111 -5.011,1.921 -7.132,5.437 -1.172,1.955 -2.436,4.89 -3.788,8.806 L 16.684,44.573 H 13.445 L -9.053,-12.232 c -3.33,-8.443 -7.06,-12.772 -11.193,-12.991 v -2.61 H 4.336 v 2.61 H 1.428 c -1.903,0 -3.457,0.561 -4.664,1.686 -1.207,1.123 -1.811,2.628 -1.811,4.512 0,3.442 1.262,8.679 3.785,15.709 h 23.979 l 6.586,-18.916 c 0.146,-0.436 0.22,-0.834 0.22,-1.199 0,-1.193 -0.312,-1.792 -0.933,-1.792 h -1.262 v -2.61 h 19.699 z"
       style="fill:#b71d24;fill-opacity:1;fill-rule:nonzero;stroke:none"
       id="path1303"
       transform="translate(1636.6768,794.93645)" />
    <path
       d="m 0,0 c -4.756,-6.521 -11.34,-9.783 -19.754,-9.783 -5.56,0 -11.267,1.685 -17.12,5.055 v 54.303 c 4.206,2.789 9.511,4.185 15.912,4.185 18.22,0 27.327,-10.69 27.327,-32.071 C 6.365,13.027 4.244,5.798 0,0 m -12.236,56.206 h -43.129 v -2.607 c 3.254,-0.075 5.459,-0.707 6.611,-1.904 1.152,-1.195 1.729,-3.424 1.729,-6.686 V -2.064 c 0,-3.264 -0.577,-5.509 -1.729,-6.74 -1.152,-1.235 -3.357,-1.868 -6.611,-1.904 v -2.61 h 28.752 c 12.584,0 22.945,3.906 31.086,11.715 8.138,7.809 12.209,17.928 12.209,30.359 0,18.301 -9.641,27.45 -28.918,27.45"
       style="fill:#b71d24;fill-opacity:1;fill-rule:nonzero;stroke:none"
       id="path1307"
       transform="translate(1044.4112,780.42185)" />
    <path
       d="m 0,0 c -4.682,0 -10.334,4.386 -16.955,13.154 l -19.26,25.494 17.778,17.015 c 5.414,5.183 10.5,8.064 15.253,8.644 v 2.607 h -25.24 v -2.607 c 3.768,-0.111 5.653,-1.324 5.653,-3.643 0,-3.37 -3,-7.974 -9,-13.806 l -13.553,-12.45 v 21.255 c 0,3.298 0.566,5.545 1.701,6.74 1.133,1.197 3.346,1.829 6.639,1.904 v 2.607 h -26.832 v -2.607 c 3.291,-0.075 5.505,-0.707 6.638,-1.904 1.134,-1.195 1.701,-3.442 1.701,-6.74 V 8.644 c 0,-3.264 -0.576,-5.509 -1.728,-6.74 C -58.356,0.669 -60.561,0.036 -63.816,0 v -2.61 h 26.832 V 0 c -5.561,0.181 -8.34,3.062 -8.34,8.644 V 33.701 L -17.725,-2.61 H 0 Z"
       style="fill:#b71d24;fill-opacity:1;fill-rule:nonzero;stroke:none"
       id="path1311"
       transform="translate(1147.7159,769.71385)" />
    <path
       d="m 0,0 c -5.562,0.181 -8.342,3.062 -8.342,8.644 v 47.073 c 0,3.262 0.569,5.491 1.701,6.686 1.135,1.197 3.348,1.829 6.641,1.904 v 2.607 h -26.834 v -2.607 c 3.256,-0.075 5.461,-0.707 6.613,-1.904 1.153,-1.195 1.729,-3.424 1.729,-6.686 V 8.644 c 0,-3.264 -0.576,-5.509 -1.729,-6.74 C -21.373,0.669 -23.578,0.036 -26.834,0 V -2.61 H 0 Z"
       style="fill:#b71d24;fill-opacity:1;fill-rule:nonzero;stroke:none"
       id="path1315"
       transform="translate(1192.5811,769.71385)" />
    <path
       d="m 0,0 c -1.795,-11.596 -8.838,-17.394 -21.127,-17.394 h -5.816 v 31.257 l 20.138,0.543 v 3.804 h -5.379 c -10.281,0 -15.42,6.034 -15.42,18.103 0,3.117 0.221,6.65 0.661,10.6 h 4.17 c 12.363,0 18.619,-5.146 18.765,-15.439 H 0 v 20.765 h -2.582 c -0.072,-1.811 -1.297,-2.718 -3.674,-2.718 h -39.18 v -2.608 c 3.254,-0.074 5.459,-0.717 6.612,-1.931 1.152,-1.212 1.728,-3.45 1.728,-6.712 V -8.75 c 0,-3.3 -0.568,-5.554 -1.701,-6.769 -1.133,-1.213 -3.347,-1.838 -6.639,-1.875 v -2.61 h 40.002 c 1.354,0 2.049,-0.796 2.086,-2.39 h 2.743 L 3.895,0 Z"
       style="fill:#b71d24;fill-opacity:1;fill-rule:nonzero;stroke:none"
       id="path1319"
       transform="translate(1260.1651,787.10735)" />
    <path
       d="m 0,0 h -24.691 v -2.607 c 3.146,-0.075 5.339,-0.544 6.586,-1.413 1.535,-1.053 2.302,-3.028 2.302,-5.926 0,-3.662 -1.717,-9.804 -5.158,-18.429 l -11.193,-28.104 -17.616,50.99 c -0.146,0.435 -0.216,0.816 -0.216,1.141 0,1.123 0.785,1.702 2.357,1.741 V 0 h -19.426 v -2.607 c 6.147,-0.327 9.219,-4.331 9.219,-12.015 0,-6.015 -1.334,-12.358 -4.004,-19.024 l -9.164,-22.833 -17.394,50.99 c -0.147,0.435 -0.221,0.796 -0.221,1.089 0,1.159 0.676,1.754 2.029,1.793 V 0 h -19.15 v -2.607 c 1.318,-0.111 2.615,-0.691 3.896,-1.741 2.305,-1.922 4.682,-6.487 7.135,-13.699 l 18.49,-54.032 h 3.184 l 11.195,28.158 c 2.195,5.51 5.084,11.434 8.668,17.775 l 15.914,-45.933 h 3.291 l 21.951,54.359 C -7.992,-7.718 -3.986,-2.682 0,-2.607 Z"
       style="fill:#b71d24;fill-opacity:1;fill-rule:nonzero;stroke:none"
       id="path1323"
       transform="translate(1384.8722,836.62785)" />
    <path
       d="m 0,0 c -5.561,0.181 -8.342,3.062 -8.342,8.644 v 47.073 c 0,3.262 0.569,5.491 1.703,6.686 1.133,1.197 3.346,1.829 6.639,1.904 v 2.607 h -26.832 v -2.607 c 3.254,-0.075 5.459,-0.707 6.611,-1.904 1.153,-1.195 1.729,-3.424 1.729,-6.686 V 8.644 c 0,-3.264 -0.576,-5.509 -1.729,-6.74 C -21.373,0.669 -23.578,0.036 -26.832,0 V -2.61 H 0 Z"
       style="fill:#b71d24;fill-opacity:1;fill-rule:nonzero;stroke:none"
       id="path1327"
       transform="translate(1431.2745,769.71385)" />
    <path
       d="m 0,0 c -8.559,-6.85 -16.883,-10.272 -24.969,-10.272 -8.523,0 -15.345,3.208 -20.467,9.621 -4.753,5.942 -7.132,13.243 -7.132,21.907 0,8.261 2.121,15.165 6.365,20.71 4.683,6.087 11.066,9.132 19.15,9.132 5.598,0 10.354,-1.341 14.266,-4.023 4.353,-2.971 6.769,-7.087 7.244,-12.342 h 3.897 V 51.15 c -6.44,2.247 -13.28,3.371 -20.522,3.371 -8.305,0 -15.402,-1.938 -21.291,-5.816 -12.365,-8.116 -18.547,-19.352 -18.547,-33.701 0,-9.097 2.707,-16.816 8.121,-23.157 5.744,-6.668 13.131,-10.001 22.168,-10.001 9.549,0 20.119,4.945 31.717,14.84 z"
       style="fill:#b71d24;fill-opacity:1;fill-rule:nonzero;stroke:none"
       id="path1331"
       transform="translate(1516.087,783.68355)" />
    <path
       d="m 0,0 c -1.426,-7.03 -4.867,-11.849 -10.314,-14.457 -4.063,-1.96 -10.227,-2.937 -18.493,-2.937 H -45.324 L 0,46.315 v 3.206 h -49.164 c -1.318,0 -2.014,0.817 -2.086,2.448 h -2.523 V 31.31 h 3.785 c 0.293,6.2 2.523,10.493 6.693,12.885 3.219,1.813 8.268,2.718 15.145,2.718 h 16.244 l -45.16,-63.763 v -3.154 h 52.568 c 0.803,0 1.24,-0.796 1.316,-2.39 h 2.633 L 3.949,0 Z"
       style="fill:#b71d24;fill-opacity:1;fill-rule:nonzero;stroke:none"
       id="path1335"
       transform="translate(1595.8507,787.10735)" />
    <path
       d="m 0,0 c -1.909,-2.894 -4.326,-5.38 -7.248,-7.458 -2.921,-2.079 -6.144,-3.692 -9.664,-4.843 -3.522,-1.148 -6.894,-1.725 -10.113,-1.725 -1.575,0 -3.223,0.168 -4.946,0.501 -1.724,0.333 -3.297,0.89 -4.719,1.669 -1.425,0.78 -2.605,1.837 -3.54,3.172 -0.939,1.336 -1.406,2.969 -1.406,4.9 0,1.185 0.113,2.301 0.337,3.339 0.225,1.039 0.487,2.079 0.787,3.118 0.151,0.814 0.299,1.577 0.449,2.282 0.151,0.703 0.299,1.354 0.45,1.947 0.074,0.298 0.243,0.501 0.506,0.614 0.261,0.111 0.543,0.166 0.843,0.166 0.373,0 0.674,-0.074 0.899,-0.222 0.224,-0.148 0.338,-0.373 0.338,-0.669 l -0.114,-1.78 c -0.15,-2.005 0.168,-3.805 0.955,-5.401 0.788,-1.595 1.891,-2.948 3.317,-4.063 1.422,-1.112 3.033,-1.967 4.832,-2.561 1.798,-0.592 3.67,-0.889 5.619,-0.889 1.723,0 3.482,0.297 5.281,0.889 1.799,0.594 3.426,1.449 4.889,2.561 1.461,1.115 2.658,2.451 3.596,4.008 0.935,1.56 1.404,3.302 1.404,5.232 0,1.855 -0.449,3.712 -1.349,5.567 -0.899,1.854 -2.078,3.691 -3.54,5.511 -1.461,1.818 -3.129,3.654 -5,5.51 -1.873,1.855 -3.785,3.748 -5.731,5.678 v -0.112 c -2.174,2.079 -4.326,4.157 -6.462,6.235 -2.135,2.077 -4.028,4.193 -5.676,6.345 -1.648,2.153 -2.976,4.324 -3.988,6.512 -1.012,2.19 -1.518,4.434 -1.518,6.736 0,3.412 0.992,6.346 2.978,8.795 1.985,2.448 4.439,4.47 7.361,6.067 2.922,1.597 6.069,2.765 9.441,3.508 3.371,0.739 6.478,1.112 9.326,1.112 3.97,0 7.678,-0.482 11.126,-1.447 0.598,-0.15 0.899,-0.485 0.899,-1.002 v -4.008 c 0,-2.004 -0.075,-4.062 -0.225,-6.18 -0.151,-2.114 -0.749,-3.876 -1.798,-5.287 -0.375,-0.372 -0.863,-0.482 -1.461,-0.333 -0.6,0.147 -0.899,0.481 -0.899,1.001 0,1.855 -0.32,3.525 -0.955,5.011 -0.636,1.483 -1.556,2.746 -2.754,3.784 -1.199,1.04 -2.567,1.839 -4.101,2.394 -1.536,0.556 -3.203,0.836 -5.001,0.836 -1.724,0 -3.355,-0.299 -4.888,-0.891 -1.537,-0.596 -2.885,-1.448 -4.047,-2.563 -1.162,-1.111 -2.078,-2.43 -2.753,-3.952 -0.674,-1.52 -1.011,-3.21 -1.011,-5.063 0,-1.931 0.411,-3.749 1.237,-5.454 0.822,-1.709 1.928,-3.362 3.314,-4.955 1.387,-1.598 2.959,-3.137 4.721,-4.621 1.759,-1.486 3.539,-3.007 5.338,-4.563 2.172,-1.782 4.307,-3.604 6.404,-5.455 2.098,-1.857 3.971,-3.807 5.619,-5.845 C -0.994,21.615 0.338,19.444 1.35,17.145 2.361,14.844 2.867,12.359 2.867,9.686 2.867,6.123 1.91,2.896 0,0"
       style="fill:#b71d24;fill-opacity:1;fill-rule:nonzero;stroke:none"
       id="path1339"
       transform="translate(880.95422,775.84465)" />
    <path
       d="m 0,0 c 242.457,0 439.01,-0.802 439.01,-1.788 0,-0.988 -196.553,-1.789 -439.01,-1.789 -242.457,0 -439.007,0.801 -439.007,1.789 C -439.007,-0.802 -242.457,0 0,0"
       style="fill:#b71d24;fill-opacity:1;fill-rule:evenodd;stroke:none"
       id="path1343"
       transform="translate(1263.3429,880.69335)" />
    <path
       d="m 0,0 v 3.2 c 7.773,0.7 8.682,1.3 8.682,9.801 v 38.902 c 0,8.5 -0.909,9.201 -8.682,9.801 v 3.3 h 28.973 v -3.3 C 21.2,61.104 20.392,60.403 20.392,51.903 V 13.001 C 20.392,4.601 21.2,3.9 28.973,3.2 V 0 Z"
       style="fill:#b71d24;fill-opacity:1;fill-rule:nonzero;stroke:none"
       id="path1347"
       transform="translate(1048.7642,913.97455)" />
    <path
       d="m 0,0 v 3 c 4.846,0.601 5.451,1.101 5.451,8.2 v 16.802 c 0,7.101 -3.129,10.101 -7.773,10.101 -3.129,0 -6.057,-1.601 -8.782,-3.801 V 10.4 c 0,-6.4 0.605,-6.799 5.35,-7.4 V 0 h -23.421 v 3 c 6.461,0.8 6.966,1.101 6.966,7.7 v 20.702 c 0,6.201 -0.505,6.5 -5.654,7.5 v 2.701 c 5.351,0.7 11.307,2.1 16.759,3.9 v -7.601 c 2.018,1.401 4.038,2.901 6.46,4.401 2.928,1.9 5.149,2.9 8.077,2.9 8.076,0 13.022,-5.801 13.022,-15.701 V 10.501 C 16.455,4 17.061,3.7 22.613,3 V 0 Z"
       style="fill:#b71d24;fill-opacity:1;fill-rule:nonzero;stroke:none"
       id="path1351"
       transform="translate(1123.1627,913.97455)" />
    <path
       d="m 0,0 c -2.423,6.101 -5.754,10.101 -10.6,10.101 -3.129,0 -5.653,-2.5 -5.653,-6 0,-3.501 2.927,-5.901 7.874,-8.001 7.975,-3.401 13.326,-6.901 13.326,-14.401 0,-9.6 -9.187,-14.401 -17.566,-14.401 -5.25,0 -10.398,1.9 -12.316,3.4 -0.707,1.5 -1.615,8.5 -1.615,12.901 l 2.826,0.3 c 2.12,-6.4 6.764,-12.901 12.821,-12.901 3.433,0 6.158,2.5 6.158,6.001 0,3.399 -2.019,5.8 -7.773,8.6 -5.149,2.4 -12.821,6.1 -12.821,14.401 0,7.5 6.259,13.701 16.455,13.701 4.442,0 7.168,-0.801 9.389,-1.7 C 1.514,9.7 2.625,3 2.928,0.8 Z"
       style="fill:#b71d24;fill-opacity:1;fill-rule:nonzero;stroke:none"
       id="path1355"
       transform="translate(1188.9786,945.47655)" />
    <path
       d="m 0,0 c -1.717,-0.8 -3.332,-1.2 -4.139,-1.2 -7.269,0 -11.408,3.7 -11.408,12.4 v 28.302 h -6.562 l -0.504,1.2 2.826,3.301 h 4.24 v 7.3 l 9.692,7.4 1.312,-0.5 v -14.2 H 5.956 c 1.11,-1 0.909,-3.7 -0.606,-4.501 H -4.543 V 14.501 c 0,-7.9 3.635,-9.001 5.855,-9.001 2.02,0 3.836,0.601 5.452,1.301 L 7.773,3.7 Z"
       style="fill:#b71d24;fill-opacity:1;fill-rule:nonzero;stroke:none"
       id="path1359"
       transform="translate(1231.4766,913.97455)" />
    <path
       d="m 0,0 c -5.049,-0.9 -5.957,-1.8 -8.582,-7.301 -2.523,-5.2 -5.754,-13.6 -12.013,-28.401 -6.764,-16.101 -8.884,-22.102 -10.499,-27.702 -0.707,-2.1 -2.019,-2.6 -3.533,-2.6 -2.826,0 -6.663,2.7 -6.663,5.8 0,1.6 0.808,2.501 2.726,3.801 3.634,2 5.855,4.1 7.974,7.8 1.313,2.3 1.919,3.8 2.322,5.1 0.506,1.5 0.303,2.9 -0.302,4.601 -4.744,13.4 -9.994,26.801 -12.317,32.202 -1.918,4.7 -3.027,5.9 -8.076,6.7 v 2.9 h 23.422 V 0 c -4.543,-0.9 -5.148,-1.601 -4.039,-5 l 8.178,-23.202 c 2.523,6.1 6.258,16.701 8.177,22.601 1.211,3.5 0.303,4.701 -4.947,5.601 V 2.9 H 0 Z"
       style="fill:#b71d24;fill-opacity:1;fill-rule:nonzero;stroke:none"
       id="path1363"
       transform="translate(1299.7169,955.07715)" />
    <path
       d="m 0,0 c -1.717,-0.8 -3.332,-1.2 -4.139,-1.2 -7.269,0 -11.408,3.7 -11.408,12.4 v 28.302 h -6.562 l -0.504,1.2 2.826,3.301 h 4.24 v 7.3 l 9.692,7.4 1.312,-0.5 v -14.2 H 5.956 c 1.11,-1 0.909,-3.7 -0.606,-4.501 H -4.543 V 14.501 c 0,-7.9 3.635,-9.001 5.855,-9.001 2.02,0 3.836,0.601 5.452,1.301 L 7.773,3.7 Z"
       style="fill:#b71d24;fill-opacity:1;fill-rule:nonzero;stroke:none"
       id="path1367"
       transform="translate(1333.8341,913.97455)" />
    <path
       d="m 0,0 c -5.451,-0.8 -11.205,-2.101 -17.162,-3.601 l -0.705,0.701 v 6.4 c -2.02,-1.5 -3.535,-2.9 -5.957,-4.3 -2.928,-1.801 -5.451,-2.801 -8.379,-2.801 -7.875,0 -13.024,4.901 -13.024,14.501 v 20.202 c 0,5.1 -0.302,5.5 -5.753,6.7 v 2.801 c 5.653,0.199 11.306,0.799 17.162,1.7 -0.202,-3.801 -0.303,-8.701 -0.303,-14.902 v -14.1 c 0,-7.401 3.836,-9.701 7.672,-9.701 3.029,0 5.855,0.9 8.582,3.501 v 24.001 c 0,5.3 -0.404,5.7 -6.967,6.7 v 2.801 c 5.855,0.199 11.813,0.7 18.07,1.7 V 9.5 c 0,-5.2 0.606,-6 4.342,-6.4 L 0,2.9 Z"
       style="fill:#b71d24;fill-opacity:1;fill-rule:nonzero;stroke:none"
       id="path1371"
       transform="translate(1405.9102,916.37495)" />
    <path
       d="m 0,0 c -1.715,-0.8 -3.33,-1.2 -4.139,-1.2 -7.267,0 -11.406,3.7 -11.406,12.4 v 28.302 h -6.562 l -0.506,1.2 2.828,3.301 h 4.24 v 7.3 l 9.691,7.4 1.313,-0.5 v -14.2 H 5.957 c 1.111,-1 0.908,-3.7 -0.605,-4.501 H -4.541 V 14.501 c 0,-7.9 3.633,-9.001 5.853,-9.001 2.02,0 3.838,0.601 5.454,1.301 L 7.773,3.7 Z"
       style="fill:#b71d24;fill-opacity:1;fill-rule:nonzero;stroke:none"
       id="path1375"
       transform="translate(1441.8438,913.97455)" />
  </g>
</svg>
