<?xml version="1.0" encoding="UTF-8" standalone="no"?>
<!-- Created with Inkscape (http://www.inkscape.org/) -->

<svg
   version="1.1"
   id="svg1279"
   width="162"
   height="148"
   xmlns="http://www.w3.org/2000/svg"
   xmlns:svg="http://www.w3.org/2000/svg">
  <g
     id="icon"
     transform="matrix(0.4700761,0,0,-0.47267047,-215.59584,465.21834)">
    <path
       d="m 0,0 c -25.998,-8.48 -49.955,-25.348 -54.721,-32.767 0.201,-5.012 -0.384,-8.991 -1.482,-11.959 -2.531,-7.811 -14.563,-16.394 -18.817,-21.907 -2.171,-1.234 -2.916,0.213 -4.351,2.457 -10.109,-17.246 -16.053,-35.493 -20.598,-56.608 -3.166,-14.7 0.67,-31.519 -2.394,-44.887 l -1.198,-0.599 c -25.199,2.884 -26.453,57.582 -16.556,77.269 -2.979,-10.302 -6.387,-33.27 -2.596,-43.916 0.199,0 1.598,0.761 1.797,0.761 1.055,2.763 1.15,3.232 4.787,3.59 2.791,-1.794 5.584,-3.59 8.381,-5.385 v 1.196 c 0.199,0.997 0.398,1.995 0.6,2.992 -9.047,4.303 -17.174,37.615 3.615,65.599 -3.979,-8.311 -9.342,-15.698 -9.006,-28.49 5.754,1.454 9.357,0.03 11.975,-4.789 0.794,1.596 1.593,3.192 2.388,4.789 -3.099,2.764 -8.601,11.325 -4.224,17.879 6.211,9.302 27.154,38.873 32.867,43.89 -7.274,-10.217 -14.246,-20.512 -17.383,-26.41 2.184,1.075 3.582,-1.831 3.43,-5.247 1.535,1.32 2.07,2.405 2.668,2.805 C -76.844,-41.943 -41.404,-12.351 0,0"
       style="fill:#b71d24;fill-opacity:1;fill-rule:evenodd;stroke:none"
       id="path1379"
       transform="translate(590.77899,984.23405)" />
    <path
       d="m 0,0 c 14.357,-4.601 30.18,-15.352 38.104,-21.148 43.732,-32 80.396,-98.527 56.558,-174.766 -14.586,-46.65 -46.41,-80.273 -89.476,-98.75 -26.495,-11.366 -63.54,-19.902 -113.118,-4.187 23.741,-5.985 52.323,-8.966 78.405,-2.996 83.994,19.225 151.672,106.195 115.511,212.469 C 66.764,-32.893 15.828,-6.408 0,0"
       style="fill:#b71d24;fill-opacity:1;fill-rule:evenodd;stroke:none"
       id="path1383"
       transform="translate(701.08559,978.56215)" />
    <path
       d="m 0,0 c -9.018,-4.065 -32.953,-18.712 -44.475,-36.921 -8.177,-12.923 -10.939,-41.606 -29.925,-43.092 -0.401,0.598 -0.797,1.197 -1.196,1.795 -0.482,10.86 2.924,20.993 16.756,31.122 C -42.553,-31.136 -31.248,-12.356 0,0"
       style="fill:#b71d24;fill-opacity:1;fill-rule:evenodd;stroke:none"
       id="path1387"
       transform="translate(574.18719,956.82875)" />
    <path
       d="m 0,0 c 21.187,-0.064 28.855,-5.697 37.096,-16.821 10.343,-13.963 -0.787,-27.975 13.763,-23.941 1.797,3.99 2.596,5.388 4.391,9.377 1.025,4.526 1.863,12.532 1.598,18.156 51.716,-34.197 64.453,-89.018 54.416,-132.457 -10.272,-44.433 -44.268,-77.211 -75.565,-86.395 27.129,18.56 37.512,54.605 20.35,82.594 -24.27,39.568 -70.762,62.882 -84.102,85.035 -12.851,21.337 -11.511,45.613 10.209,58.777 C -13.053,-3.08 -8.939,-0.762 0,0"
       style="fill:#b71d24;fill-opacity:1;fill-rule:evenodd;stroke:none"
       id="path1391"
       transform="translate(645.43519,949.49765)" />
    <path
       d="m 0,0 c -8.42,-7.161 -16.242,-13.225 -20.348,-22.494 -11.025,-24.904 2.418,-44.422 11.922,-59.389 20.301,-31.97 80.211,-68.379 87.256,-104.838 6.35,-32.86 -34.824,-54.932 -64.004,-43.765 -12.525,4.793 -24.83,13.715 -27.99,27.84 -1.385,6.176 -0.08,10.977 0.047,16.187 -3.02,3.295 -8.391,2.638 -8.99,-2.208 -2.893,-9.51 -3.43,-16.969 -5.424,-26.545 -12.395,4.914 -30.955,12.82 -35.088,27.806 0.4,3.388 1.611,4.838 2.008,8.229 -2.018,1.199 -2.83,4.264 -4.026,6.46 -4.359,4.263 1.877,-0.061 -3.592,-8.98 -5.777,-1.171 -12.515,6.015 -19.779,13.946 -5.488,5.991 -2.812,15.516 1.826,21.965 3.391,0.796 6.78,1.595 10.172,2.393 0.199,0.4 0.399,0.799 0.6,1.199 -11.195,54.7 12.002,93.054 33.68,114.662 C -32.27,-18.097 -14.143,-6.261 0,0"
       style="fill:#b71d24;fill-opacity:1;fill-rule:evenodd;stroke:none"
       id="path1395"
       transform="translate(597.94108,946.99085)" />
    <path
       d="m 0,0 c -21.125,-16.432 -35.322,-38.235 -43.188,-56.983 -2.343,-5.594 0.018,-13.004 -1.792,-20.349 -1.895,-7.669 -10.799,-17.031 -17.958,-19.752 -1.195,0.6 -2.394,1.199 -3.591,1.798 -0.207,19.608 1.371,28.083 13.168,35.31 1.949,1.194 6.273,1.652 7.181,2.395 C -42.9,-51.539 -32.258,-22.93 0,0"
       style="fill:#b71d24;fill-opacity:1;fill-rule:evenodd;stroke:none"
       id="path1399"
       transform="translate(559.73209,933.59925)" />
    <path
       d="m 0,0 c 1.17,-12.694 7.311,-35.126 11.559,-40.511 2.968,0.885 9.066,0.356 11.002,-1.384 10.14,-9.108 23.656,-18.311 19.71,-36.672 C 19.289,-71.167 -1.439,-30.301 0,0"
       style="fill:#b71d24;fill-opacity:1;fill-rule:evenodd;stroke:none"
       id="path1403"
       transform="translate(459.91179,857.62755)" />
    <path
       d="m 0,0 c -3.59,-15.345 5.867,-30.41 -8.041,-41.846 -2.094,-0.444 -2.022,-0.568 -3.592,0.599 -3.609,1.846 -4.992,4.746 -5.984,8.977 C -22.74,-10.397 -3.424,-5.646 0,0"
       style="fill:#b71d24;fill-opacity:1;fill-rule:evenodd;stroke:none"
       id="path1407"
       transform="translate(513.21649,842.45175)" />
    <path
       d="m 0,0 c 8.281,-26.089 18.687,-42.039 32.979,-53.526 0.798,1.195 2.582,3.165 3.38,4.359 8.967,-2.424 19.18,-8.085 30.362,-14.865 5.009,-5.816 14.031,-14.569 17.529,-21.342 -0.398,-0.397 -1.73,-1.822 -4.662,-1.647 -6.99,2.6 -15.943,6.182 -22.826,9.36 -11.373,5.252 -14.856,10.861 -23.418,20.32 -6.489,7.162 -14.657,15.234 -18.358,21.369 C 5.734,-20.635 2.965,-13.079 0,0"
       style="fill:#b71d24;fill-opacity:1;fill-rule:evenodd;stroke:none"
       id="path1411"
       transform="translate(458.64029,825.83065)" />
  </g>
</svg>
