<?xml version="1.0" encoding="UTF-8" standalone="no"?>
<svg
   height="150"
   viewBox="0 0 150 150"
   width="150"
   version="1.1"
   xmlns="http://www.w3.org/2000/svg"
   xmlns:svg="http://www.w3.org/2000/svg">
  <path
     d="M 99.81203,107.70677 69.360902,77.25564 V 39.28571 H 80.639098 V 72.74436 L 107.70677,99.81203 Z M 6.7669173,107.5188 Q 3.9473684,101.12782 2.2556391,94.3609 0.56390977,87.59398 0,80.6391 h 11.278195 q 0.37594,5.45113 1.8797,10.80827 1.503759,5.35714 3.571428,10.43233 z M 0,69.3609 Q 0.56390977,62.21805 2.2556391,55.45113 3.9473684,48.68421 6.9548872,42.29323 l 9.7744358,5.6391 q -2.255639,5.07519 -3.665413,10.52632 -1.409775,5.45112 -1.785715,10.90225 z m 32.518797,68.23308 q -6.015038,-4.13533 -11.184211,-9.21052 -5.169172,-5.07519 -9.116541,-11.09023 l 9.962406,-5.63909 q 3.195489,4.69924 7.236842,8.7406 4.041354,4.04135 8.740602,7.23684 z M 22.180451,38.15789 12.406015,32.5188 q 3.947368,-6.01504 9.022556,-11.09023 5.075188,-5.07519 11.090226,-9.02255 l 5.639098,9.9624 q -4.699248,3.19549 -8.740602,7.14286 -4.041353,3.94737 -7.236842,8.64661 z M 69.360902,150 q -7.142857,-0.56391 -13.909774,-2.25564 -6.766917,-1.69173 -13.157895,-4.69925 l 5.639098,-9.77443 q 5.075188,2.25564 10.526316,3.66541 5.451127,1.40977 10.902255,1.78571 z M 47.932331,16.72932 42.293233,6.95489 Q 48.684211,3.947368 55.451128,2.255639 62.218045,0.56391 69.360902,0 v 11.2782 q -5.451128,0.37594 -10.902255,1.78571 -5.451128,1.40977 -10.526316,3.66541 z M 80.639098,150 v -11.2782 q 5.451128,-0.37594 10.902255,-1.78571 5.451128,-1.40977 10.526317,-3.66541 l 5.6391,9.77443 q -6.39098,3.00752 -13.157898,4.69925 Q 87.781955,149.43609 80.639098,150 Z M 102.06767,16.72932 Q 96.992481,14.47368 91.541353,13.06391 86.090226,11.65414 80.639098,11.2782 V 0 q 7.142857,0.56391 13.909774,2.161654 6.766918,1.597744 13.157898,4.793236 z m 15.41353,120.86466 -5.63909,-9.9624 q 4.69924,-3.19549 8.64661,-7.14286 3.94737,-3.94737 7.14286,-8.64661 l 9.9624,5.63909 q -3.94736,6.01504 -9.02255,11.09023 -5.07519,5.07519 -11.09023,9.02255 z m 10.15038,-99.43609 q -3.19549,-4.69924 -7.14286,-8.64661 -3.94737,-3.94737 -8.64661,-7.14286 l 5.63909,-9.9624 q 6.01504,3.94736 10.99624,9.02255 4.98121,5.07519 8.92858,11.09023 z M 138.7218,69.3609 q -0.37594,-5.6391 -1.87969,-10.99624 -1.50376,-5.35714 -3.7594,-10.43233 l 9.9624,-5.6391 q 3.19549,6.39098 4.79324,13.1579 1.59774,6.76692 2.16165,13.90977 z m 4.32331,38.34587 -9.77443,-5.6391 q 2.25564,-5.07519 3.66541,-10.52632 1.40977,-5.45112 1.78571,-10.90225 H 150 q -0.56391,7.14285 -2.25564,13.90977 -1.69173,6.76692 -4.69925,13.1579 z"
     style="fill:#1193c1;fill-opacity:1;stroke-width:0.18797" />
</svg>
