<?xml version="1.0" encoding="UTF-8" standalone="no"?>
<svg
   height="121"
   viewBox="0 0 108 121"
   width="108"
   version="1.1"
   id="svg2091"
   xmlns="http://www.w3.org/2000/svg"
   xmlns:svg="http://www.w3.org/2000/svg">
  <defs
     id="defs2095" />
  <path
     style="fill:#1193c1;stroke-width:0.150624"
     d="m 48.6,83.1875 q -7.8,0 -15.3,2.193125 -7.5,2.193125 -14.25,6.125625 L 21.3,111.925 h 65.4 l 2.55,-22.6875 h -2.7 q -5.55,0 -10.2,-0.831875 Q 71.7,87.57375 63.6,85.305 59.85,84.24625 56.175,83.716875 52.5,83.1875 48.6,83.1875 Z M 18,81.675 Q 25.05,78.045 32.84475,76.07875 40.6395,74.1125 48.6,74.1125 q 4.5,0 8.925,0.605 4.425,0.605 8.475,1.815 7.6692,2.1175 11.7339,2.87375 4.06455,0.75625 8.6661,0.75625 h 3.75 L 97.95,9.075 H 10.05 Z M 21.3,121 q -3.4875,0 -6.075,-2.25816 -2.5875,-2.25801 -2.925,-5.75809 L 0,0 H 108 L 95.7,112.98375 q -0.3375,3.50008 -2.925,5.75809 Q 90.1875,121 86.7,121 Z m 27.3,-9.075 H 86.55 21.3 Z"
     id="path2089" />
</svg>
