<?xml version="1.0" encoding="UTF-8" standalone="no"?>
<svg
   height="84"
   width="67"
   version="1.1"
   id="water_drop"
   xmlns="http://www.w3.org/2000/svg"
   xmlns:svg="http://www.w3.org/2000/svg">
  <path
     style="fill:#1193c1;stroke-width:0.104843"
     d="m 33.395313,70.56 q 1.674999,0 2.564843,-0.5775 Q 36.85,69.405 36.85,68.25 q 0,-1.155 -0.889844,-1.785 -0.889844,-0.63 -2.669531,-0.63 -4.396875,0 -8.950781,-2.7825 Q 19.785937,60.27 18.529688,53.235 18.320312,52.29 17.5875,51.7125 16.854687,51.135 16.017188,51.135 q -1.151563,0 -1.779688,0.8925 -0.628125,0.8925 -0.41875,1.8375 1.570313,8.82 7.432813,12.7575 5.862499,3.9375 12.14375,3.9375 z M 33.5,84 Q 19.157813,84 9.5789063,74.13 0,64.26 0,49.56 0,39.06 8.3226563,26.7225 16.645312,14.385 33.5,0 50.354688,14.385 58.677344,26.7225 67,39.06 67,49.56 67,64.26 57.421094,74.13 47.842188,84 33.5,84 Z m 0,-6.3 q 11.725,0 19.471875,-8.0325 7.746875,-8.0325 7.746875,-20.1075 0,-8.295 -6.961719,-18.8475 Q 46.795313,20.16 33.5,8.4 20.204688,20.16 13.242969,30.7125 6.28125,41.265 6.28125,49.56 q 0,12.075 7.746875,20.1075 Q 21.775,77.7 33.5,77.7 Z m 0,-35.7 z"
     id="icon" />
</svg>
