<?xml version="1.0" encoding="UTF-8" standalone="no"?>
<svg
   class="svg-icon"
   version="1.1"
   id="water_pump"
   width="118"
   height="144"
   xmlns="http://www.w3.org/2000/svg"
   xmlns:svg="http://www.w3.org/2000/svg">
  <path
     d="m 22.686783,1.3332567 h -3.006434 v 4.1407329 h 3.006434 z m 0,9.5535773 h -3.006434 v 10.46902 h 3.006434 z m 0.0068,16.112849 h -3.026957 v 10.499593 h 3.026957 z m 63.537014,95.999437 4.538724,4.50079 v 11.9976 H 31.769362 V 128.99792 H 59 v -4.4991 H 34.794609 v -5.9988 l -9.07745,7.50019 V 144 h 71.102696 v -17.99979 l -6.050493,-6.00049 z M 62.026957,10.499593 C 41.062292,10.285596 33.282841,19.499489 33.282841,19.499489 V 5.9987975 h 6.052204 V 0 H 25.720582 v 35.999575 c 0,0 13.829942,-17.785786 36.308083,-16.500086 16.208754,0.857697 43.437685,7.072192 46.897305,46.500868 0,19.499485 -16.424231,46.927163 -48.41078,46.499163 -29.607738,0 -45.385537,-29.357077 -45.385537,-38.998969 V 0 H 0 V 5.9987975 H 6.0504922 V 75.000249 C 6.2659717,83.356445 23.772725,121.71512 59,121.50112 c 39.333333,0 59,-28.929083 59,-55.500763 C 115.19023,17.14379 76.505042,11.571292 62.026957,10.499593 Z M 41.419711,79.628426 28.735568,92.20518 34.083187,97.509326 46.51423,85.183936 a 22.582463,22.427552 0 0 0 9.462235,4.363225 v 16.950169 h 7.563971 V 89.774751 A 22.563652,22.40887 0 0 0 73.64739,85.824241 L 85.431999,97.507626 90.779622,92.20348 78.996725,80.521791 a 22.467884,22.313759 0 0 0 3.982927,-10.022338 h 16.86716 V 62.999258 H 82.748782 A 22.512348,22.357917 0 0 0 78.348579,53.617221 L 90.779622,41.293531 85.431999,35.991085 72.746143,48.567839 A 22.54142,22.38679 0 0 0 63.540436,45.221962 V 26.999683 h -7.563971 v 18.451565 a 22.560232,22.405473 0 0 0 -8.596898,3.722924 L 34.084899,35.991085 28.737275,41.293531 42.031943,54.476618 a 22.519188,22.364711 0 0 0 -3.753768,8.52434 H 19.666667 v 7.500194 h 18.378927 c 0.448061,3.328889 1.622928,6.423401 3.374117,9.127274 z"
     fill="#1193c1"
     id="icon"
     style="stroke-width:0.403183" />
</svg>
